<svg xmlns="http://www.w3.org/2000/svg" xmlns:xlink="http://www.w3.org/1999/xlink" version="1.1" style="" xml:space="preserve" width="40.98429620523768" height="48.2879628206839"><rect id="backgroundrect" width="100%" height="100%" x="0" y="0" fill="none" stroke="none" class="" style=""/>
















<g class="currentLayer" style=""><title>Layer 1</title><g id="svg_1" class="">
	<g id="group-158svg">
		<path id="path-1_65_" style="fill:#FF3A2F;" d="M17.951701398570005,46.830973174384376 h3.2940240626797657 c0.6350328588081992,0 1.1499525946510312,0.3661828849676297 1.1499525946510312,0.8181084635693358 c0,0.4521624368714133 -0.5149197358428326,0.8188190383784583 -1.1499525946510312,0.8188190383784583 h-0.15332701262013754 c-0.6350328588081992,0 -1.1499525946510312,0.3661828849676297 -1.1499525946510312,0.8183453218390436 c0,0.45168872033199897 0.5149197358428326,0.8183453218390436 1.1499525946510312,0.8183453218390436 h7.0812430528747115 c0.6350328588081992,0 1.149743702263265,0.36641974323733795 1.149743702263265,0.8183453218390436 c0,0.45192557860170696 -0.5147108434550672,0.8181084635693358 -1.149743702263265,0.8181084635693358 h-8.509858092805395 H10.311044531258323 c-0.6352417511959645,0 -1.1499525946510312,-0.3661828849676297 -1.1499525946510312,-0.8181084635693358 c0,-0.45192557860170696 0.5147108434550672,-0.8183453218390436 1.1499525946510312,-0.8183453218390436 h1.965259584101163 c0.6350328588081992,0 1.149743702263265,-0.36665660150704477 1.149743702263265,-0.8183453218390436 c0,-0.4521624368714133 -0.5147108434550672,-0.8183453218390436 -1.149743702263265,-0.8183453218390436 H2.9231474531433426 c-0.6350328588081992,0 -1.1499525946510312,-0.36665660150704477 -1.1499525946510312,-0.8188190383784583 c0,-0.45192557860170696 0.5149197358428326,-0.8181084635693358 1.1499525946510312,-0.8181084635693358 h2.210499247338276 H17.951701398570005 z"/>
		<path id="path-2_65_" style="fill:#FF3A2F;" d="M38.33959844451742,52.44972504838318 c0.7250654779352834,0 1.3130975494961634,-0.4187654208426711 1.3130975494961634,-0.9346427322653736 c0,-0.5163510279621174 -0.5880320715608821,-0.9348795905350806 -1.3130975494961634,-0.9348795905350806 h-4.023685173145895 c-0.7250654779352834,0 -1.312888657108398,0.418528562572964 -1.312888657108398,0.9348795905350806 c0,0.5158773114227028 0.5878231791731161,0.9346427322653736 1.312888657108398,0.9346427322653736 H38.33959844451742 z"/>
		<path id="path-3_65_" style="fill:#142A3B;" d="M28.900378118541752,1.2191761768317002 c0.9299889103335857,0 2.5754342487652235,0.0329232994893277 3.8262818667071636,0.0329232994893277 c0.7862709475506784,0 0.9308244798846496,0.8012915264201114 0.9308244798846496,0.8012915264201114 s0,9.398773000259064 0,12.285364733183062 c0,1.6357432105992566 0.43052721118542703,1.8600479920121582 0.7513859187937795,2.117749789453802 c0.4242604395524514,0.3379967508724503 1.576093065693375,0.7020479114127137 2.1081419773330077,0.9611708584726011 c1.6466986927582334,0.8034232508474771 1.4678868088306622,2.7274229756806316 1.4678868088306622,2.7274229756806316 s-0.011697973714887917,24.87982950833428 -0.011697973714887917,29.499039484167856 c0,1.0907323320025455 -0.45496762055403206,1.5514216665834248 -1.2416563528802413,1.5514216665834248 c-3.574984324224841,0 -7.74907201656215,-0.0329232994893277 -11.137306546124316,-0.0329232994893277 c-0.8228271154097022,0 -1.7001751440262924,-0.06395173282099637 -1.7001751440262924,-1.3465392632865298 c0,-5.709942307836124 0,-29.76574189585838 0,-29.76574189585838 s0.022560377878712377,-1.8929712915014851 1.6097247401236776,-2.6949733927307196 c1.394356688337081,-0.7074956516159838 1.2535632189828951,-0.5776973198163322 1.8589333587283425,-0.9955153075801733 c0.662606653993292,-0.45453101956848774 0.6799447221778574,-0.7371029353294088 0.6799447221778574,-1.9888988907329803 c0,-7.316551951261372 -0.03551170592019537,-11.546366931695994 -0.03551170592019537,-12.317577457863269 C28.00715426845496,1.6043077233759195 28.55278118529937,1.2191761768317002 28.900378118541752,1.2191761768317002 z"/>
		<path id="path-4_65_" style="opacity:0.35;fill:#020403;enable-background:new    ;" d="M36.51722125364812,17.417676383850605 c-0.5320489116396323,-0.2591229470598884 -1.6838815377805556,-0.6231741076001511 -2.1083508697207733,-0.9611708584726011 c-0.3206498152205876,-0.257701797441644 -0.7511770264060142,-0.48200657885454495 -0.7511770264060142,-2.117749789453802 c0,-2.8870654494634156 0,-12.285364733183062 0,-12.285364733183062 s-0.14455353233397172,-0.8012915264201114 -0.9308244798846496,-0.8012915264201114 C31.475812367306972,1.2520994763210302 29.830784813650865,1.2187024602922851 28.900378118541752,1.2187024602922851 c-0.34780582563014845,0 -0.8932238500867957,0.38560526308363613 -0.8932238500867957,0.8346885424488532 c0,0.022738393891909812 0,0.05874085088743361 0,0.08787441806144296 c0.7578615828145221,0.008763755979173555 1.5869554698571997,0.019659236385713673 2.292802848118023,0.019659236385713673 c0.7862709475506784,0 0.9306155874968841,0.8012915264201114 0.9306155874968841,0.8012915264201114 s0,9.39829928371965 0,12.28489101664365 c0,1.6362169271386715 0.43052721118542703,1.8605217085515726 0.7513859187937795,2.117749789453802 c0.4242604395524514,0.338470467411865 1.5763019580811415,0.7020479114127137 2.1083508697207733,0.9616445750120158 c1.6466986927582334,0.8034232508474771 1.4676779164428964,2.7274229756806316 1.4676779164428964,2.7274229756806316 s-0.011697973714887917,24.879355791794865 -0.011697973714887917,29.49856576762844 c0,0.24704317530481132 -0.02632044085849777,0.45761017707468354 -0.0714411966159226,0.6416490526373286 c0.42467822432798347,0.0009474330788295743 0.8453874932884147,0.0014211496182443618 1.2566966047993826,0.0014211496182443618 c0.7866887323262098,0 1.2416563528802413,-0.46068933458087963 1.2416563528802413,-1.5514216665834248 c0,-4.61920997583358 0.011697973714887917,-29.499039484167856 0.011697973714887917,-29.499039484167856 S38.16391994640634,18.22109963469808 36.51722125364812,17.417676383850605 z"/>
		<path id="path-5_65_" style="fill:#FBB713;" d="M33.58771440761976,6.484061795887628 h-5.436633283994136 v-1.7077481245903046 h5.436633283994136 V6.484061795887628 z"/>
		<path id="path-6_64_" style="fill:#FBB713;" d="M36.172339921446685,40.04143087322196 c0,0.3481816564698681 -0.24252406219615757,0.6293324226125441 -0.5370623289460124,0.6293324226125441 h-9.263332935476834 c-0.29495605152538745,0 -0.5337200507417594,-0.2811507661426761 -0.5337200507417594,-0.6293324226125441 v-13.831338659563219 c0,-0.3469973651213317 0.23876399921637223,-0.6286218478034216 0.5337200507417594,-0.6286218478034216 h9.263332935476834 c0.294538266749856,0 0.5370623289460124,0.281624482682091 0.5370623289460124,0.6286218478034216 V40.04143087322196 z"/>
		<path id="path-7_64_" style="fill:#FFFFFF;" d="M25.83843349866985,24.590692223669304 c-0.4196648070216025,0 -0.7601593990799471,-0.3825261055774403 -0.7601593990799471,-0.8538740622951522 c0,-4.482779612482121 2.6101103851343557,-6.202370650557795 3.990471283491126,-6.486126857667252 c0.41193578867426617,-0.08124238650963594 0.8090402178171557,0.22312049006436468 0.8842414774128636,0.6866521238817334 c0.07520125959570789,0.46187362592941716 -0.19594105972437212,0.9050354485519491 -0.6062057092965102,0.99219929180427 c-0.1255443250472792,0.028186134095179862 -2.7481882534475863,0.6750460686660716 -2.7481882534475863,4.8072754419812505 C26.5985928977498,24.208166118091853 26.258098305691462,24.590692223669304 25.83843349866985,24.590692223669304 z"/>
	</g>
</g><g id="svg_2" class="">
</g><g id="svg_3" class="">
</g><g id="svg_4" class="">
</g><g id="svg_5" class="">
</g><g id="svg_6" class="">
</g><g id="svg_7" class="">
</g><g id="svg_8" class="">
</g><g id="svg_9" class="">
</g><g id="svg_10" class="">
</g><g id="svg_11" class="">
</g><g id="svg_12" class="">
</g><g id="svg_13" class="">
</g><g id="svg_14" class="">
</g><g id="svg_15" class="">
</g><g id="svg_16" class="">
</g></g></svg>