<?xml version="1.0" standalone="no"?>
<!DOCTYPE svg PUBLIC "-//W3C//DTD SVG 20010904//EN"
 "http://www.w3.org/TR/2001/REC-SVG-20010904/DTD/svg10.dtd">
<svg version="1.0" xmlns="http://www.w3.org/2000/svg"
 width="8334.000000pt" height="8334.000000pt" viewBox="0 0 8334.000000 8334.000000"
 preserveAspectRatio="xMidYMid meet">

<g transform="translate(0.000000,8334.000000) scale(0.100000,-0.100000)"
fill="#000000" stroke="none">
<path d="M36287 59986 c-58 -21 -103 -61 -131 -118 l-26 -52 0 -430 c0 -480 0
-475 70 -543 49 -48 96 -66 183 -71 l77 -5 -2 -3531 -3 -3531 -232 -125 c-563
-303 -876 -528 -1260 -904 -265 -259 -455 -485 -652 -776 -494 -730 -786
-1574 -851 -2460 -8 -114 -10 -1885 -8 -6645 l3 -6490 21 -90 c117 -495 409
-874 843 -1093 184 -92 379 -145 595 -162 70 -6 930 -10 2033 -10 l1913 0 3
4308 c3 4032 4 4315 20 4427 97 668 320 1191 737 1727 94 121 417 440 550 542
190 147 347 246 653 410 l87 47 0 2415 0 2414 -42 0 c-62 0 -124 34 -153 84
l-25 43 0 292 c0 247 2 298 16 326 l16 34 -90 118 c-324 423 -724 802 -1160
1098 -181 123 -312 201 -590 349 l-222 119 0 3534 0 3533 58 0 c125 0 225 67
256 171 23 77 24 810 1 887 -20 66 -66 119 -130 148 l-50 24 -1235 -1 c-1006
0 -1242 -2 -1273 -13z"/>
<path d="M44509 59986 c-57 -20 -106 -64 -134 -119 l-25 -51 0 -430 c0 -490
-1 -478 84 -553 51 -45 105 -63 190 -63 l56 0 -2 -3532 -3 -3533 -165 -89
c-398 -214 -600 -337 -825 -506 -354 -266 -694 -601 -971 -958 -104 -133 -104
-133 -89 -162 12 -24 15 -83 15 -333 0 -299 0 -305 -23 -338 -28 -43 -98 -79
-154 -79 l-43 0 0 -2414 0 -2414 158 -85 c388 -208 618 -374 882 -637 620
-618 969 -1409 1010 -2293 6 -119 10 -1898 10 -4325 l0 -4123 1993 4 c1834 2
1999 4 2085 20 355 66 619 203 862 446 275 276 423 591 460 982 8 81 10 1978
8 6554 -3 6032 -5 6450 -21 6594 -59 528 -163 957 -342 1408 -59 148 -221 483
-305 628 -401 698 -971 1296 -1650 1731 -126 81 -243 148 -487 279 l-203 108
0 3533 0 3534 53 0 c130 0 230 66 261 171 23 77 24 810 1 887 -20 66 -66 119
-130 148 l-50 24 -1235 -1 c-979 0 -1242 -3 -1271 -13z"/>
<path d="M34929 29426 c-2 -2 -62 -6 -134 -10 -150 -8 -287 -21 -434 -41 -58
-8 -106 -15 -108 -15 -2 0 -2 -784 -1 -1742 l3 -1743 398 -3 397 -3 0 696 0
695 158 0 c182 0 266 -11 340 -45 76 -35 125 -76 171 -146 57 -86 93 -188 155
-441 92 -375 183 -675 222 -735 l14 -23 405 0 c276 0 405 3 405 10 0 6 -6 23
-14 38 -22 42 -85 259 -190 653 -53 196 -110 396 -127 445 -84 239 -205 401
-360 484 -32 17 -59 35 -59 39 0 5 24 19 54 31 123 50 269 164 368 288 151
191 218 434 188 688 -63 528 -421 808 -1117 874 -99 9 -724 15 -734 6z m696
-615 c107 -28 173 -62 233 -119 60 -57 96 -118 116 -197 20 -73 20 -213 2
-281 -45 -168 -182 -292 -383 -345 -65 -18 -118 -22 -310 -26 l-233 -6 0 487
c0 380 3 488 13 491 32 12 216 22 342 20 102 -3 162 -9 220 -24z"/>
<path d="M27512 29073 l3 -338 460 -2 c253 -2 466 -3 473 -3 9 0 12 -293 12
-1430 l0 -1430 403 3 402 2 3 1428 2 1427 463 2 c254 0 469 1 477 2 13 1 15
47 18 339 l2 337 -1360 0 -1360 0 2 -337z"/>
<path d="M30652 27643 l3 -1768 398 -3 397 -3 0 741 0 740 655 0 655 0 0 -734
c0 -660 2 -734 16 -740 9 -3 181 -6 384 -6 203 0 375 3 384 6 15 6 16 171 16
1770 l0 1764 -397 -2 -398 -3 -3 -677 -2 -678 -655 0 -655 0 0 680 0 680 -400
0 -400 0 2 -1767z"/>
<path d="M37360 27640 l0 -1770 1125 0 1125 0 0 330 0 330 -725 0 -725 0 0
420 0 420 650 0 650 0 0 325 0 325 -650 0 -650 0 0 365 0 365 690 0 690 0 0
330 0 330 -1090 0 -1090 0 0 -1770z"/>
<path d="M40155 29398 c-3 -7 -4 -803 -3 -1768 l3 -1755 1128 -3 1127 -2 0
330 0 330 -725 0 -725 0 0 420 0 420 650 0 650 0 0 325 0 325 -650 0 -650 0 0
365 0 365 690 0 690 0 -3 328 -2 327 -1088 3 c-865 2 -1089 0 -1092 -10z"/>
<path d="M43550 29401 c0 -5 56 -247 125 -538 69 -290 203 -852 297 -1248 94
-396 225 -949 292 -1230 l121 -510 437 -3 437 -2 10 37 c5 21 52 234 105 473
52 239 140 638 195 886 103 463 134 623 196 994 31 184 45 251 45 214 0 -55
57 -469 96 -694 36 -213 279 -1466 348 -1795 l22 -110 426 -3 c333 -2 427 1
435 10 5 7 28 85 51 173 45 178 34 133 382 1480 310 1203 467 1812 476 1848
l6 27 -405 0 c-378 0 -406 -1 -411 -17 -10 -35 -289 -1443 -317 -1603 -55
-308 -158 -925 -165 -988 -4 -34 -9 -60 -12 -58 -2 3 -19 110 -38 238 -53 379
-109 708 -184 1093 -16 83 -42 222 -59 310 -156 821 -191 1009 -191 1016 0 5
-184 8 -427 7 l-427 -3 -103 -495 c-178 -858 -351 -1727 -390 -1962 -20 -125
-38 -226 -40 -224 -2 1 -34 191 -73 422 -65 391 -121 707 -285 1599 -37 198
-79 428 -94 510 l-27 150 -427 3 c-263 1 -427 -1 -427 -7z"/>
<path d="M48462 27643 l3 -1768 400 0 400 0 0 1765 0 1765 -403 3 -402 2 2
-1767z"/>
<path d="M49956 29401 c-3 -5 -5 -800 -3 -1767 l2 -1759 369 -2 368 -2 -5
1052 c-3 579 -8 1093 -11 1142 -13 243 -17 419 -7 410 5 -5 34 -66 64 -135
105 -241 308 -656 435 -890 54 -101 553 -1004 720 -1305 l150 -270 419 0 418
0 3 1768 2 1767 -370 0 -370 0 0 -662 c0 -594 9 -1066 25 -1323 9 -131 34
-433 41 -485 9 -66 -5 -43 -66 105 -194 471 -347 770 -826 1613 -139 244 -298
524 -368 650 l-58 102 -463 0 c-261 0 -466 -4 -469 -9z"/>
<path d="M53570 27640 l0 -1770 1125 0 1125 1 0 329 0 330 -725 0 -725 0 0
420 0 420 650 0 650 0 0 325 0 325 -650 0 -650 0 0 365 0 365 690 0 690 0 0
330 0 330 -1090 0 -1090 0 0 -1770z"/>
<path d="M34730 24764 c-348 -74 -560 -348 -560 -725 0 -346 180 -597 487
-681 141 -38 416 -25 538 26 19 8 35 21 35 28 0 17 -27 119 -33 125 -3 2 -36
-5 -74 -17 -95 -30 -274 -38 -366 -16 -193 45 -327 180 -373 372 -25 104 -22
270 5 369 63 228 215 351 468 380 68 7 205 -10 278 -35 32 -11 59 -19 60 -18
1 2 11 35 22 75 l20 72 -41 16 c-109 44 -333 58 -466 29z"/>
<path d="M36845 24765 c-171 -44 -323 -166 -403 -325 -159 -317 -103 -741 124
-949 69 -63 123 -96 217 -129 63 -23 88 -26 197 -26 91 0 141 5 185 18 169 50
309 166 383 316 124 253 114 614 -25 833 -38 61 -121 145 -178 182 -95 61
-186 87 -320 91 -85 3 -138 -1 -180 -11z m259 -150 c68 -18 153 -72 197 -124
49 -59 107 -188 125 -281 20 -99 15 -260 -10 -355 -43 -160 -153 -300 -273
-345 -127 -48 -279 -29 -382 48 -130 98 -198 245 -208 452 -18 362 161 616
437 619 31 1 82 -6 114 -14z"/>
<path d="M41695 24758 c-49 -4 -96 -10 -102 -13 -10 -3 -13 -152 -13 -700 l0
-695 90 0 90 0 0 280 0 280 88 -6 c127 -9 275 18 377 69 64 32 150 121 179
186 48 107 53 242 14 347 -42 114 -123 187 -253 230 -70 24 -98 27 -230 29
-82 1 -190 -2 -240 -7z m413 -168 c107 -47 160 -144 150 -274 -15 -178 -168
-280 -399 -263 -43 3 -84 9 -89 12 -6 4 -10 111 -10 275 l0 269 23 4 c12 3 78
4 147 3 106 -2 133 -6 178 -26z"/>
<path d="M38946 24728 c-3 -18 -17 -206 -31 -418 -14 -212 -28 -414 -30 -450
-13 -170 -35 -477 -35 -493 0 -16 9 -18 86 -16 53 1 87 6 89 13 2 6 11 137 20
291 9 154 18 303 20 330 2 28 7 120 10 205 4 85 8 178 10 205 2 28 5 77 5 110
l1 60 35 -125 c35 -127 188 -595 296 -907 l60 -173 68 0 c55 0 69 3 75 18 46
117 304 836 356 992 l68 205 0 -130 c1 -138 4 -187 27 -600 8 -143 17 -307 20
-365 3 -58 7 -111 9 -117 3 -9 30 -13 90 -13 l85 0 0 42 c0 64 -80 1341 -85
1356 -3 9 -36 12 -118 12 l-114 0 -131 -357 c-154 -418 -180 -494 -231 -667
l-38 -128 -17 63 c-43 158 -125 411 -240 734 l-124 350 -115 3 -116 3 -5 -33z"/>
<path d="M43886 24713 c-164 -475 -456 -1342 -456 -1350 0 -7 32 -10 92 -9
l91 1 72 215 72 215 249 3 249 2 75 -217 75 -218 92 -2 c51 -1 95 2 97 5 2 4
-103 320 -234 702 l-237 695 -111 3 -110 3 -16 -48z m239 -503 c47 -140 85
-258 85 -262 0 -5 -92 -8 -205 -8 -113 0 -205 1 -205 3 0 2 38 115 84 253 46
137 92 283 102 324 l18 75 18 -65 c10 -36 56 -180 103 -320z"/>
<path d="M45822 24058 l3 -703 85 0 85 0 -1 515 c0 283 -3 549 -7 590 l-7 75
61 -115 c33 -63 84 -153 112 -200 96 -161 499 -805 524 -838 l25 -33 86 3 87
3 3 703 2 703 -87 -3 -88 -3 0 -390 c0 -214 3 -473 7 -575 l7 -184 -55 109
c-70 138 -158 283 -426 705 l-213 335 -103 3 -102 3 2 -703z"/>
<path d="M48070 24753 c0 -3 42 -83 94 -177 52 -94 151 -274 220 -401 l126
-230 0 -296 0 -297 93 1 92 2 2 302 2 302 231 395 c126 217 230 398 230 401 0
3 -46 5 -102 5 l-103 0 -43 -83 c-24 -45 -101 -195 -172 -334 l-129 -252 -161
322 c-89 177 -167 328 -172 335 -11 13 -208 18 -208 5z"/>
</g>
</svg>
