<svg xmlns="http://www.w3.org/2000/svg" xmlns:xlink="http://www.w3.org/1999/xlink" version="1.1" style="" xml:space="preserve" width="53.43455553848207" height="67.29319442310259"><rect id="backgroundrect" width="100%" height="100%" x="0" y="0" fill="none" stroke="none" class="" style=""/>
















<g class="currentLayer" style=""><title>Layer 1</title><g id="svg_1" class="">
	<g id="group-158svg">
		<path id="path-1_65_" style="fill:#FF3A2F;" d="M22.34397870151168,60.65749988826909 h4.73885402940534 c0.913571960770642,0 1.6543465934349926,0.48872357018566187 1.6543465934349926,1.0918830604277325 c0,0.6034756115681945 -0.7407746326643521,1.092831424406101 -1.6543465934349926,1.092831424406101 h-0.22057954579133263 c-0.913571960770642,0 -1.6543465934349926,0.48872357018566187 -1.6543465934349926,1.092199181753855 c0,0.6028433689159504 0.7407746326643521,1.092199181753855 1.6543465934349926,1.092199181753855 h10.187228913869713 c0.913571960770642,0 1.654046076342633,0.4890396915117852 1.654046076342633,1.092199181753855 c0,0.6031594902420732 -0.7404741155719946,1.0918830604277325 -1.654046076342633,1.0918830604277325 h-12.242465308511298 H11.351965014305184 c-0.913872477862999,0 -1.6543465934349926,-0.48872357018566187 -1.6543465934349926,-1.0918830604277325 c0,-0.6031594902420732 0.7404741155719946,-1.092199181753855 1.6543465934349926,-1.092199181753855 h2.8272648049112457 c0.913571960770642,0 1.654046076342633,-0.48935581283790824 1.654046076342633,-1.092199181753855 c0,-0.6034756115681945 -0.7404741155719946,-1.092199181753855 -1.654046076342633,-1.092199181753855 H0.723577008852819 c-0.913571960770642,0 -1.6543465934349926,-0.48935581283790824 -1.6543465934349926,-1.092831424406101 c0,-0.6031594902420732 0.7407746326643521,-1.0918830604277325 1.6543465934349926,-1.0918830604277325 h3.1800718713404326 H22.34397870151168 z"/>
		<path id="path-2_65_" style="fill:#FF3A2F;" d="M51.674446915726946,68.15652998655132 c1.0430948275772693,0 1.8890504425671855,-0.5589025045848965 1.8890504425671855,-1.2474147528800912 c0,-0.6891444909474408 -0.8459556149899203,-1.247730874206213 -1.8890504425671855,-1.247730874206213 h-5.788560233014497 c-1.0430948275772693,0 -1.8887499254748272,0.5585863832587751 -1.8887499254748272,1.247730874206213 c0,0.6885122482951959 0.8456550978975618,1.2474147528800912 1.8887499254748272,1.2474147528800912 H51.674446915726946 z"/>
		<path id="path-3_65_" style="fill:#142A3B;" d="M38.09498106331154,-0.2179838831751053 c1.3379020951812148,0 3.7050752316911906,0.043940864331052605 5.504571580735466,0.043940864331052605 c1.1311463356383862,0 1.3391041635506498,1.069438446273023 1.3391041635506498,1.069438446273023 s0,12.54401034187401 0,16.39658094333109 c0,2.1831338782032192 0.6193657273514126,2.4825007740413962 1.080959981214471,2.8264407768628708 c0.6103502145806492,0.45110513237706396 2.267401461846869,0.9369836106276208 3.03281849608464,1.2828203414058306 c2.3689762390641307,1.0722835382081257 2.1117336080050295,3.6401370703026465 2.1117336080050295,3.6401370703026465 s-0.016828957172090857,33.2057002172523 -0.016828957172090857,39.37069831929676 c0,1.4557387067949363 -0.6545262271573882,2.0705946861035454 -1.7862735969804893,2.0705946861035454 c-5.143049518627874,0 -11.14798205814068,-0.043940864331052605 -16.02236929619982,-0.043940864331052605 c-1.1837368268011685,0 -2.4459086147079736,-0.08535275805312366 -2.4459086147079736,-1.7971497390074278 c0,-7.620736808839414 0,-39.7266509325109 0,-39.7266509325109 s0.03245584597474661,-2.5264416383724484 2.31578471371663,-3.5968284486238407 c2.0059515914947443,-0.9442544011284426 1.8034030712449376,-0.7710199144132138 2.6743016049006343,-1.3286579336936193 c0.9532402169619989,-0.6066368248294215 0.9781831356277741,-0.9837695668937783 0.9781831356277741,-2.654470775452134 c0,-9.764987763929543 -0.05108790570099,-15.410282405828331 -0.05108790570099,-16.439573443683777 C36.80996997638547,0.29602939310036686 37.59492062162655,-0.2179838831751053 38.09498106331154,-0.2179838831751053 z"/>
		<path id="path-4_65_" style="opacity:0.35;fill:#020403;enable-background:new    ;" d="M49.05273580198911,21.40123748902876 c-0.7654170342377711,-0.34583673077821164 -2.4224682815039906,-0.831715209028768 -3.0331190131769983,-1.2828203414058306 c-0.46129373677070246,-0.3439400028214759 -1.0806594641221132,-0.6433068986596527 -1.0806594641221132,-2.8264407768628708 c0,-3.8532028441093327 0,-16.39658094333109 0,-16.39658094333109 s-0.20795782791226466,-1.069438446273023 -1.3391041635506498,-1.069438446273023 C41.800056295002726,-0.17404301884405016 39.433484192677454,-0.21861612582735168 38.09498106331154,-0.21861612582735168 c-0.5003609587773412,0 -1.2850110869260731,0.5146455189277217 -1.2850110869260731,1.11401155325632 c0,0.03034764730777734 0,0.07839808887842463 0,0.1172810119915142 c1.0902760110775944,0.011696489066539152 2.283028350649525,0.026238070068182434 3.2984756057297853,0.026238070068182434 c1.1311463356383862,0 1.3388036464582922,1.069438446273023 1.3388036464582922,1.069438446273023 s0,12.543378099221766 0,16.39594870067885 c0,2.183766120855465 0.6193657273514126,2.4831330166936407 1.080959981214471,2.8264407768628708 c0.6103502145806492,0.45173737502930866 2.2677019789392285,0.9369836106276208 3.0331190131769983,1.2834525840580762 c2.3689762390641307,1.0722835382081257 2.111433090912671,3.6401370703026465 2.111433090912671,3.6401370703026465 s-0.016828957172090857,33.205067974600034 -0.016828957172090857,39.370066076644534 c0,0.32971454314595466 -0.03786515363720435,0.6107464020690169 -0.10277684558669746,0.8563726724663379 c0.6109512487653684,0.0012644853044907203 1.2161926727759151,0.001896727956736083 1.8079108276303195,0.001896727956736083 c1.1317473698231029,0 1.7862735969804893,-0.6148559793086112 1.7862735969804893,-2.0705946861035454 c0,-6.164998102044478 0.016828957172090857,-39.37069831929676 0.016828957172090857,-39.37069831929676 S51.42171204105323,22.473521027236895 49.05273580198911,21.40123748902876 z"/>
		<path id="path-5_65_" style="fill:#FBB713;" d="M44.83828409874981,6.808760953879787 h-7.821257845729168 v-2.279234761344514 h7.821257845729168 V6.808760953879787 z"/>
		<path id="path-6_64_" style="fill:#FBB713;" d="M48.5565820825048,51.59588207496253 c0,0.4646983494003381 -0.3489003442285247,0.8399343635079584 -0.7726294444543793,0.8399343635079584 h-13.326430460649357 c-0.4243301344105745,0 -0.7678211709766412,-0.37523601410762064 -0.7678211709766412,-0.8399343635079584 v-18.45990483893382 c0,-0.4631177427697256 0.34349103656606755,-0.8389859995295899 0.7678211709766412,-0.8389859995295899 h13.326430460649357 c0.42372910022585786,0 0.7726294444543793,0.37586825675986635 0.7726294444543793,0.8389859995295899 V51.59588207496253 z"/>
		<path id="path-7_64_" style="fill:#FFFFFF;" d="M33.69000152351678,30.974655729327964 c-0.603738838548756,0 -1.0935816990935419,-0.5105359416881269 -1.0935816990935419,-1.139617380672257 c0,-5.982912218197815 3.754961069022745,-8.27795304584846 5.740778015329456,-8.656666394543432 c0.5926197061314827,-0.10842961486007914 1.1639026987054897,0.29778628920756467 1.2720888519546456,0.9164357244296459 c0.10818615324915513,0.6164365859392257 -0.2818850326325212,1.2078995871147553 -0.8721006020251306,1.324232235127901 c-0.18061077250761767,0.03761843780859902 -3.9536028670718886,0.9009457794496363 -3.9536028670718886,6.4159984349858865 C34.783583222610325,30.46411978763983 34.293740362065556,30.974655729327964 33.69000152351678,30.974655729327964 z"/>
	</g>
</g><g id="svg_2" class="">
</g><g id="svg_3" class="">
</g><g id="svg_4" class="">
</g><g id="svg_5" class="">
</g><g id="svg_6" class="">
</g><g id="svg_7" class="">
</g><g id="svg_8" class="">
</g><g id="svg_9" class="">
</g><g id="svg_10" class="">
</g><g id="svg_11" class="">
</g><g id="svg_12" class="">
</g><g id="svg_13" class="">
</g><g id="svg_14" class="">
</g><g id="svg_15" class="">
</g><g id="svg_16" class="">
</g></g></svg>